<?xml version="1.0" encoding="UTF-8"?>
<svg version="1.1" xmlns="http://www.w3.org/2000/svg" width="512" height="512">
<path d="M0 0 C1.1229055 -0.00538554 2.245811 -0.01077108 3.40274394 -0.01631981 C7.14960042 -0.03057913 10.89610262 -0.02350041 14.64297485 -0.01637268 C17.33579112 -0.02207731 20.02858232 -0.02894176 22.72138977 -0.03717041 C29.26713191 -0.0543297 35.81277793 -0.05520437 42.35853671 -0.04995751 C47.68146422 -0.04590905 53.00436341 -0.04736737 58.32728958 -0.05270576 C59.46553305 -0.0538284 59.46553305 -0.0538284 60.62677134 -0.05497371 C62.16854949 -0.05650526 63.71032764 -0.0580436 65.25210579 -0.05958868 C79.69710955 -0.07330345 94.14205909 -0.06788334 108.5870616 -0.05640347 C121.78699244 -0.04647315 134.98678307 -0.05941006 148.18669228 -0.08333766 C161.75736382 -0.10775101 175.32797011 -0.11733098 188.89866316 -0.11068493 C196.51076499 -0.10719754 204.12275904 -0.10939289 211.73484421 -0.12693596 C218.21511269 -0.14168599 224.69519748 -0.14225702 231.17546247 -0.12486505 C234.47820546 -0.11637531 237.78055465 -0.11633902 241.08329201 -0.1295166 C244.67229019 -0.14274044 248.26040459 -0.13116507 251.84936523 -0.11352539 C252.88119568 -0.1231304 253.91302613 -0.1327354 254.97612417 -0.14263147 C267.51626131 -0.01631059 276.60695143 4.65298684 285.48916626 13.2665863 C292.16841469 20.39207763 296.68913614 28.75009007 296.66519165 38.61521912 C296.66511612 39.65599609 296.66504059 40.69677307 296.66496277 41.76908875 C296.65980148 42.88588013 296.6546402 44.00267151 296.64932251 45.15330505 C296.64720009 46.87610687 296.64720009 46.87610687 296.64503479 48.63371277 C296.63943769 52.30172837 296.6268857 55.96968291 296.61416626 59.63768005 C296.60915089 62.12465834 296.60458804 64.61163758 296.60049438 67.09861755 C296.58946921 73.19499524 296.57220653 79.2913273 296.55166626 85.38768005 C303.81166626 85.38768005 311.07166626 85.38768005 318.55166626 85.38768005 C318.55166626 97.59768005 318.55166626 109.80768005 318.55166626 122.38768005 C338.72089869 110.48155464 338.72089869 110.48155464 358.77041626 98.3759613 C359.41275208 97.9831044 360.05508789 97.5902475 360.71688843 97.18548584 C363.7707302 95.3166633 366.82062778 93.44182344 369.86514282 91.55784607 C370.95278931 90.89067566 372.04043579 90.22350525 373.16104126 89.53611755 C374.10946899 88.95007751 375.05789673 88.36403748 376.0350647 87.76023865 C378.55166626 86.38768005 378.55166626 86.38768005 382.55166626 85.38768005 C382.55166626 127.95768005 382.55166626 170.52768005 382.55166626 214.38768005 C378.4099073 212.73097647 374.7736178 210.87320549 370.97744751 208.59861755 C370.02710884 208.03460487 370.02710884 208.03460487 369.05757141 207.459198 C366.99080354 206.23084174 364.92738047 204.99699444 362.86416626 203.76268005 C361.43648547 202.9119228 360.00875057 202.06125635 358.58096313 201.2106781 C345.49032703 193.39920117 332.51180405 185.41412903 319.55166626 177.38768005 C319.22166626 189.59768005 318.89166626 201.80768005 318.55166626 214.38768005 C311.29166626 214.38768005 304.03166626 214.38768005 296.55166626 214.38768005 C296.56054871 217.68319351 296.56943115 220.97870697 296.57858276 224.37408447 C296.65823412 254.61745833 296.71792144 284.86080874 296.75592758 315.10426306 C296.76093021 319.07072453 296.76610752 323.03718575 296.77139282 327.00364685 C296.77244206 327.79327435 296.77349131 328.58290185 296.77457234 329.39645746 C296.79196203 342.17015413 296.82349177 354.94377856 296.86027744 367.71743242 C296.89772691 380.83127493 296.91991057 393.9450797 296.92802024 407.05897349 C296.93349973 415.14636829 296.95078557 423.23355884 296.98333213 431.32089075 C297.00704088 437.52967003 297.009476 443.73829467 297.00409698 449.94711304 C297.00519555 452.48873334 297.01312709 455.03036153 297.02848816 457.57193565 C297.04847296 461.0497234 297.04357362 464.52664663 297.03268433 468.00445557 C297.04433569 469.00351561 297.05598706 470.00257565 297.0679915 471.03191024 C296.97820397 481.68576116 293.56443436 490.40704807 286.55166626 498.38768005 C286.05022095 498.99353943 285.54877563 499.5993988 285.03213501 500.22361755 C279.20926122 506.71236743 270.15806322 512.00906712 261.30422157 512.51648122 C260.47631852 512.51826979 259.64841548 512.52005836 258.79542446 512.52190113 C257.83631017 512.52635897 256.87719588 512.53081682 255.88901752 512.53540975 C254.83816142 512.53522539 253.78730533 512.53504102 252.7046051 512.53485107 C251.58597173 512.53852776 250.46733835 512.54220445 249.314807 512.54599255 C245.55252827 512.55703817 241.79027715 512.56087475 238.02798462 512.56468201 C235.33591548 512.57094602 232.6438493 512.57757998 229.95178223 512.58459473 C221.86285904 512.60434678 213.77393463 512.61442422 205.68499336 512.62332252 C201.87347113 512.6277079 198.06195029 512.6330741 194.25042915 512.63831139 C181.57576632 512.65532319 168.90110434 512.66981629 156.22643185 512.67706013 C152.93811479 512.67896995 149.64979774 512.68089029 146.36148071 512.68284607 C145.13557325 512.68357168 145.13557325 512.68357168 143.88489998 512.68431195 C130.65232924 512.69260824 117.41984902 512.71793857 104.18731778 512.75042675 C90.59421705 512.78352738 77.00116227 512.80151164 63.40802103 512.80470437 C55.77906179 512.8068668 48.15023451 512.8155761 40.52131462 512.84116554 C34.02264451 512.86291374 27.52413841 512.87090284 21.02543604 512.86119876 C17.71253038 512.85666565 14.40023613 512.86068052 11.08733177 512.87796021 C7.48714221 512.89568423 3.88780357 512.8885692 0.28761292 512.87542725 C-1.26524865 512.89188112 -1.26524865 512.89188112 -2.84948117 512.90866739 C-14.22169919 512.808824 -23.87072311 508.82356094 -32.44833374 501.38768005 C-44.61145863 488.43232098 -45.74909857 474.75529685 -45.71575928 457.76469421 C-45.71949845 455.95952723 -45.72410103 454.15436187 -45.72948992 452.34919906 C-45.74170228 447.4007232 -45.74146153 442.45231505 -45.73910117 437.50382757 C-45.73869256 432.16216335 -45.74973635 426.82052071 -45.75921631 421.47886658 C-45.77581742 411.01815217 -45.78132545 400.55746031 -45.78244106 390.09673384 C-45.78339192 381.59257485 -45.78750411 373.0884233 -45.79384232 364.58426666 C-45.811452 340.46545241 -45.82068157 316.34665594 -45.81918137 292.22783521 C-45.81910146 290.92803518 -45.81902154 289.62823515 -45.81893921 288.28904724 C-45.81885745 286.98765752 -45.81877569 285.6862678 -45.81869145 284.34544203 C-45.81787854 263.25449003 -45.83701815 242.16360946 -45.86521594 221.07267812 C-45.8939508 199.4088576 -45.90775592 177.7450719 -45.90602839 156.08123183 C-45.90536472 143.92175642 -45.91084721 131.76235588 -45.93238449 119.60289764 C-45.95060412 109.25030206 -45.9549371 98.89781531 -45.94136564 88.54521063 C-45.93484012 83.26561667 -45.93470397 77.98623145 -45.95207214 72.70665741 C-45.96782592 67.86796952 -45.96491559 63.02965549 -45.94750388 58.19097659 C-45.94443909 56.44607128 -45.94804661 54.70113792 -45.95922403 52.95626572 C-46.03911094 39.59411196 -44.6903637 27.46211041 -36.44833374 16.38768005 C-35.74708374 15.37705505 -35.04583374 14.36643005 -34.32333374 13.32518005 C-25.42091631 3.0790015 -12.94424991 -0.07507106 0 0 Z " fill="#61C4F9" transform="translate(87.44833374023438,-0.3876800537109375)"/>
<path d="M0 0 C1.12535156 0.50917969 2.25070312 1.01835937 3.41015625 1.54296875 C6.4596641 4.43609159 6.41698818 5.15428781 6.5859375 9.203125 C6.54613898 11.2195833 6.47469674 13.2356146 6.375 15.25 C6.33439453 16.796875 6.33439453 16.796875 6.29296875 18.375 C6.22230799 20.9187875 6.12372078 23.45833099 6 26 C6.61931396 25.92668457 7.23862793 25.85336914 7.87670898 25.77783203 C24.80553965 24.03272189 24.80553965 24.03272189 29.8125 27.11621094 C32.84292806 30.21608631 34.54313689 33.9826586 36.16162109 37.96044922 C36.98064682 39.9529189 37.90763703 41.83994483 38.89453125 43.75390625 C49.91668478 65.81536396 53.33751202 93.27832461 46 117 C45.64808594 118.21300781 45.29617188 119.42601562 44.93359375 120.67578125 C36.31199534 149.17961781 16.92460016 171.81177923 -9.08251953 185.99511719 C-32.4697549 198.25152931 -61.65889127 201.2269024 -86.98730469 193.64160156 C-102.29973564 188.76034628 -115.80193404 181.4860567 -128 171 C-128.67289063 170.47148437 -129.34578125 169.94296875 -130.0390625 169.3984375 C-148.67849446 154.32351843 -161.05563563 127.77971393 -163.79711914 104.35424805 C-166.54002281 72.52534302 -159.10076436 44.99072574 -138.75 20.3125 C-103.74241544 -20.49690335 -45.5289666 -26.78487743 0 0 Z " fill="#6DECD4" transform="translate(271,187)"/>
<path d="M0 0 C112.86 0 225.72 0 342 0 C342 59.61985472 342 59.61985472 332 71 C331.49855469 71.60585938 330.99710937 72.21171875 330.48046875 72.8359375 C324.65759496 79.32468737 315.60639696 84.62138706 306.75255531 85.12880117 C305.92465226 85.13058974 305.09674922 85.13237831 304.2437582 85.13422108 C302.80508677 85.14090784 302.80508677 85.14090784 301.33735126 85.14772969 C300.28649516 85.14754533 299.23563907 85.14736097 298.15293884 85.14717102 C297.03430547 85.15084771 295.91567209 85.1545244 294.76314074 85.1583125 C291.00086201 85.16935812 287.23861089 85.1731947 283.47631836 85.17700195 C280.78424922 85.18326597 278.09218304 85.18989993 275.40011597 85.19691467 C267.31119278 85.21666672 259.22226837 85.22674416 251.1333271 85.23564246 C247.32180487 85.24002784 243.51028403 85.24539404 239.69876289 85.25063133 C227.02410006 85.26764314 214.34943808 85.28213623 201.67476559 85.28938007 C198.38644853 85.2912899 195.09813148 85.29321024 191.80981445 85.29516602 C190.99254281 85.29564976 190.17527117 85.2961335 189.33323372 85.2966319 C176.10066298 85.30492818 162.86818276 85.33025851 149.63565152 85.36274669 C136.04255079 85.39584733 122.44949601 85.41383159 108.85635477 85.41702431 C101.22739553 85.41918674 93.59856825 85.42789605 85.96964836 85.45348549 C79.47097825 85.47523369 72.97247215 85.48322279 66.47376978 85.47351871 C63.16086412 85.4689856 59.84856987 85.47300047 56.53566551 85.49028015 C52.93547595 85.50800418 49.33613731 85.50088915 45.73594666 85.48774719 C44.18308509 85.50420106 44.18308509 85.50420106 42.59885257 85.52098733 C31.22663455 85.42114395 21.57761063 81.43588089 13 74 C-6.35190711 53.38762385 0 28.2018394 0 0 Z " fill="#468FF1" transform="translate(42,427)"/>
<path d="M0 0 C42.57 0 85.14 0 129 0 C129 12.21 129 24.42 129 37 C149.16923243 25.09387459 149.16923243 25.09387459 169.21875 12.98828125 C169.86108582 12.59542435 170.50342163 12.20256744 171.16522217 11.79780579 C174.21906394 9.92898325 177.26896152 8.05414338 180.31347656 6.17016602 C181.40112305 5.50299561 182.48876953 4.8358252 183.609375 4.1484375 C185.0320166 3.26937744 185.0320166 3.26937744 186.48339844 2.37255859 C189 1 189 1 193 0 C193 42.57 193 85.14 193 129 C188.85824104 127.34329642 185.22195154 125.48552544 181.42578125 123.2109375 C180.47544258 122.64692482 180.47544258 122.64692482 179.50590515 122.07151794 C177.43913728 120.84316168 175.37571421 119.60931439 173.3125 118.375 C171.88481921 117.52424275 170.45708431 116.6735763 169.02929688 115.82299805 C155.93866077 108.01152111 142.96013779 100.02644897 130 92 C129.67 104.21 129.34 116.42 129 129 C86.43 128.67 43.86 128.34 0 128 C0 85.76 0 43.52 0 0 Z " fill="#468FF1" transform="translate(277,85)"/>
<path d="M0 0 C9.44973098 6.71332239 16.7902579 16.02797607 18.8984375 27.6875 C19.77256162 41.97606733 17.5681321 53.43345534 8.234375 64.6953125 C1.90326404 71.37333365 -5.69028892 75.20227321 -14.1015625 78.6875 C-12.96460938 78.90664063 -11.82765625 79.12578125 -10.65625 79.3515625 C11.86418629 83.88800037 32.20023644 94.13246606 45.578125 113.42578125 C47.80169778 116.78316882 49.89180654 120.1961421 51.8984375 123.6875 C52.32898438 124.3990625 52.75953125 125.110625 53.203125 125.84375 C54.10660308 128.23948962 53.85791449 129.33370916 52.8984375 131.6875 C40.38569051 148.97315049 14.3326693 159.11665184 -5.828125 162.796875 C-34.77376405 167.37797097 -63.15746539 160.6926545 -86.953125 143.64453125 C-89.40752429 141.72772697 -91.76544731 139.74609796 -94.1015625 137.6875 C-94.82859375 137.07777344 -95.555625 136.46804688 -96.3046875 135.83984375 C-97.28695312 134.96005859 -97.28695312 134.96005859 -98.2890625 134.0625 C-98.86011719 133.55460938 -99.43117187 133.04671875 -100.01953125 132.5234375 C-101.1015625 130.6875 -101.1015625 130.6875 -100.96484375 127.80078125 C-96.40899189 111.37085396 -80.23838417 97.57739044 -66.0390625 89.375 C-55.55051158 83.50613503 -45.10302189 79.72163936 -33.1015625 78.6875 C-34.14054687 78.22601563 -35.17953125 77.76453125 -36.25 77.2890625 C-49.10589394 71.36649367 -58.8107536 64.35542299 -64.1015625 50.6875 C-64.46636719 49.7696875 -64.83117187 48.851875 -65.20703125 47.90625 C-66.27875715 44.04990878 -66.44511317 40.40843669 -66.4140625 36.4375 C-66.40560303 35.30924805 -66.40560303 35.30924805 -66.39697266 34.15820312 C-66.11381588 21.13859831 -60.77562384 11.51886704 -51.44140625 2.54296875 C-35.86073806 -9.81231905 -16.57950318 -10.35448526 0 0 Z " fill="#FEFEFE" transform="translate(237.1015625,220.3125)"/>
<path d="M0 0 C1.1229055 -0.00538554 2.245811 -0.01077108 3.40274394 -0.01631981 C7.14960042 -0.03057913 10.89610262 -0.02350041 14.64297485 -0.01637268 C17.33579112 -0.02207731 20.02858232 -0.02894176 22.72138977 -0.03717041 C29.26713191 -0.0543297 35.81277793 -0.05520437 42.35853671 -0.04995751 C47.68146422 -0.04590905 53.00436341 -0.04736737 58.32728958 -0.05270576 C59.46553305 -0.0538284 59.46553305 -0.0538284 60.62677134 -0.05497371 C62.16854949 -0.05650526 63.71032764 -0.0580436 65.25210579 -0.05958868 C79.69710955 -0.07330345 94.14205909 -0.06788334 108.5870616 -0.05640347 C121.78699244 -0.04647315 134.98678307 -0.05941006 148.18669228 -0.08333766 C161.75736382 -0.10775101 175.32797011 -0.11733098 188.89866316 -0.11068493 C196.51076499 -0.10719754 204.12275904 -0.10939289 211.73484421 -0.12693596 C218.21511269 -0.14168599 224.69519748 -0.14225702 231.17546247 -0.12486505 C234.47820546 -0.11637531 237.78055465 -0.11633902 241.08329201 -0.1295166 C244.67229019 -0.14274044 248.26040459 -0.13116507 251.84936523 -0.11352539 C252.88119568 -0.1231304 253.91302613 -0.1327354 254.97612417 -0.14263147 C267.51626131 -0.01631059 276.60695143 4.65298684 285.48916626 13.2665863 C294.0177934 22.36501397 296.55166626 30.93947453 296.55166626 43.38768005 C183.69166626 43.38768005 70.83166626 43.38768005 -45.44833374 43.38768005 C-44.22499662 29.93097176 -41.23102224 19.98766978 -31.44833374 10.38768005 C-21.5827787 2.66427655 -12.37685854 -0.07178043 0 0 Z " fill="#468FF1" transform="translate(87.44833374023438,-0.3876800537109375)"/>
<path d="M0 0 C0 42.57 0 85.14 0 129 C-4.14176368 127.34329453 -7.7780352 125.48550749 -11.57421875 123.2109375 C-12.20768723 122.83501968 -12.8411557 122.45910187 -13.49382019 122.0717926 C-15.56073644 120.84343737 -17.62427161 119.6095381 -19.6875 118.375 C-21.11666612 117.52281232 -22.54586566 116.6706807 -23.97509766 115.81860352 C-33.30819517 110.24600325 -42.60877097 104.62056522 -51.875 98.9375 C-52.97287842 98.2657373 -54.07075684 97.59397461 -55.2019043 96.90185547 C-56.20519775 96.2832666 -57.20849121 95.66467773 -58.2421875 95.02734375 C-59.1172998 94.48843506 -59.99241211 93.94952637 -60.89404297 93.39428711 C-63 92 -63 92 -65 90 C-65.34817505 87.85266113 -65.34817505 87.85266113 -65.48095703 85.15820312 C-65.53244904 84.149552 -65.58394104 83.14090088 -65.63699341 82.10168457 C-65.80580899 77.46217708 -65.93717562 72.8233051 -66.02978516 68.18164062 C-66.09291871 65.74047664 -66.18828927 63.29991955 -66.31689453 60.86132812 C-67.33146826 41.35396277 -67.33146826 41.35396277 -63.63027954 36.02957153 C-60.01029112 32.679039 -55.77272468 30.80440502 -51.24291992 28.96588135 C-47.60005093 27.39713198 -44.32509959 25.27527156 -40.96484375 23.18359375 C-39.6291612 22.38755934 -38.29126025 21.59523547 -36.95117188 20.80664062 C-36.28915771 20.41581299 -35.62714355 20.02498535 -34.94506836 19.62231445 C-34.2825708 19.23132568 -33.62007324 18.84033691 -32.9375 18.4375 C-30.92511596 17.24764285 -28.91307357 16.05721136 -26.90127563 14.86636353 C-25.57960411 14.08432931 -24.257488 13.30304593 -22.93490601 12.52255249 C-19.5213928 10.50554647 -16.12041488 8.47038337 -12.73486328 6.40673828 C-12.04598526 5.98820084 -11.35710724 5.56966339 -10.64735413 5.13844299 C-9.32868661 4.33599382 -8.01220385 3.52994035 -6.69822693 2.71983337 C-2.22248044 0 -2.22248044 0 0 0 Z " fill="#376FCF" transform="translate(470,85)"/>
<path d="M0 0 C28.05 0 56.1 0 85 0 C85 14.19 85 28.38 85 43 C56.95 43 28.9 43 0 43 C0 28.81 0 14.62 0 0 Z " fill="#FDFEFE" transform="translate(171,448)"/>
</svg>
